<svg width="194" height="154" viewBox="0 0 194 154" fill="none" xmlns="http://www.w3.org/2000/svg">
<path d="M41.0957 39.8549C39.1967 69.7384 19.5848 94.1899 1.48546 116.455C0.409916 117.784 0.208252 119.617 1.48546 120.912C2.5778 122.039 4.86332 122.224 5.93886 120.912C25.1978 97.217 45.381 71.605 47.3977 39.8549C47.6497 35.8021 41.3477 35.8189 41.0957 39.8549Z" fill="#1D1D1B"/>
<path d="M58.3392 111.141C62.8262 121.551 69.9685 131.221 78.724 138.452C87.4796 145.683 98.4704 149.601 109.327 151.872C130.031 156.193 153.306 153.536 169.406 138.721C177.321 131.439 183.001 121.551 185.371 111.057C187.74 100.564 187.841 87.4296 180.564 79.1894C177.405 75.6074 172.01 73.2867 167.473 75.6579C162.616 78.1972 160.852 84.7053 163.457 89.4644C165.524 93.2482 170.515 94.7113 174.565 94.644C179.422 94.5767 183.186 91.432 186.228 87.8837C194.194 78.5335 194.815 65.3492 190.412 54.1996C186.009 43.0501 176.296 34.8772 164.549 32.9264C160.583 32.2706 158.869 38.3414 162.868 39.0141C171.153 40.3931 178.548 45.2867 182.732 52.6189C186.917 59.951 188.446 70.1419 185.068 78.1467C183.573 81.6783 180.833 85.2098 177.623 87.3455C175.439 88.8086 171.54 88.8086 169.473 86.9924C167.406 85.1762 168.851 80.9383 171.607 80.9888C175.64 81.0392 177.909 86.1684 178.934 89.3299C184.346 106.231 175.64 126.243 162.079 136.703C148.517 147.163 128.703 149.349 111.663 145.918C101.512 143.884 90.6222 140.352 82.6397 133.524C74.6572 126.697 68.0191 117.784 63.7841 107.963C63.1119 106.382 60.8264 106.063 59.4651 106.836C57.835 107.761 57.6669 109.594 58.3392 111.158V111.141Z" fill="#1D1D1B"/>
<path d="M8.12462 97.3347C7.85573 95.1485 6.71294 92.7269 6.83057 90.5407C6.94821 88.3545 9.06572 86.387 10.1245 84.638C11.3344 82.6368 12.3931 80.5684 13.3342 78.4326C13.8384 77.2891 14.309 76.1287 14.7459 74.9515C14.9644 74.3798 15.166 73.7912 15.3509 73.2194L15.5694 72.5131C16.0399 71.3528 15.7374 71.5041 14.6283 72.9672H12.9477C14.6619 73.2362 16.3592 73.6903 18.0398 74.0602C20.1908 74.5311 21.821 73.1185 22.0226 71.0164C22.2915 68.2921 20.9471 66.0387 20.6614 63.4152C20.3925 61.0777 21.3336 58.7402 22.3419 56.6885C23.4847 54.3174 24.7955 52.0303 25.8038 49.5918C26.8962 46.9348 27.6188 44.16 28.3582 41.3852C29.8539 35.8693 31.7865 30.488 34.0552 25.2411C35.198 22.6009 36.3912 19.9943 37.618 17.3877C38.2398 16.0928 38.8615 14.7979 39.4833 13.503C39.8194 12.7967 40.1724 12.0904 40.5085 11.3841C40.9454 10.476 41.9705 9.76966 40.29 10.4591H38.6095C39.517 10.6441 40.7102 11.855 41.4664 12.3931C42.4411 13.0994 43.4158 13.8057 44.3401 14.5793C46.2727 16.1769 48.0877 17.9426 49.533 19.9943C52.4235 24.0808 54.4401 28.8567 56.1543 33.5318C59.6834 43.1846 61.5656 53.6783 58.2381 63.6675C56.9609 67.5353 63.0445 69.1834 64.3217 65.3492C67.3634 56.2008 66.5904 46.363 63.9856 37.2147C61.532 28.6045 57.8852 19.0862 51.516 12.5949C49.869 10.9132 48.0205 9.45014 46.1383 8.03753C44.4914 6.8099 42.542 4.96008 40.5253 4.43876C38.0381 3.79972 36.4248 5.4982 35.4165 7.51621C34.2401 9.85375 33.131 12.2249 32.0218 14.5793C27.7869 23.5763 24.2577 32.6573 21.6193 42.2429C20.9471 44.715 20.1572 47.0861 19.0144 49.3732C17.8717 51.6603 16.6617 53.8128 15.7206 56.1504C14.7795 58.4879 14.1577 61.0272 14.393 63.5498C14.6283 66.0723 15.9895 68.4603 15.7374 70.9828L19.7203 67.939C16.6953 67.2831 12.3091 65.3828 10.2253 68.7798C9.36821 70.1756 9.09931 72.0591 8.52793 73.5894C7.88933 75.2879 7.13306 76.9359 6.29279 78.5504C4.7467 81.5101 2.36034 84.2008 1.15036 87.2951C-0.244484 90.8602 1.36885 93.7864 1.80579 97.3011C2.00746 98.9827 3.09981 100.463 4.9652 100.463C6.5113 100.463 8.32628 99.0164 8.12462 97.3011V97.3347Z" fill="#1D1D1B"/>
<path d="M74.96 25.7793C82.4384 20.4484 90.6226 16.1265 99.2438 12.9481C107.865 9.76971 118.133 6.91084 127.796 6.7763C134.938 6.6754 145.996 8.89522 148.097 17.1354C150.013 24.6526 144.316 32.8591 139.24 37.7865C133.123 43.706 125.527 47.6243 117.763 50.8867C113.058 52.8711 97.412 59.9174 96.1179 50.954C95.6474 47.7588 97.3279 46.0603 100.605 45.6735C103.462 45.3372 105.394 46.8003 106.1 49.4237C108.067 56.6549 99.3446 63.6843 94.1349 67.6195C77.3296 80.333 57.9194 89.414 37.669 95.0644L40.7276 100.328C47.0632 94.8122 52.5081 88.3209 56.7262 81.0392C58.7597 77.5245 53.3147 74.3462 51.2813 77.8609C47.3152 84.7053 42.24 90.6921 36.2741 95.8717C33.8374 97.9906 36.4422 101.959 39.3327 101.135C60.7595 95.1485 81.4469 85.4284 99.0253 71.7228C106.1 66.2069 114.839 57.6303 112.15 47.7252C110.94 43.2519 108.167 40.7799 103.748 39.67C99.3278 38.5601 93.8156 40.3595 91.2108 44.1264C88.9757 47.3552 89.379 52.3162 91.0427 55.6964C93.4627 60.6237 99.2774 61.9017 104.235 61.3468C110.066 60.6909 115.494 58.6056 120.855 56.3354C125.595 54.3174 130.233 52.1648 134.569 49.3732C142.568 44.2105 149.777 37.2483 153.088 28.1336C154.853 23.2904 155.441 17.7409 153.239 12.9313C151.256 8.60934 147.24 5.34691 142.971 3.39616C131.157 -2.01884 117.108 0.907292 105.142 4.35473C93.177 7.80217 81.867 13.1163 71.767 20.3138C68.49 22.6514 71.6325 28.1168 74.9432 25.7625L74.96 25.7793Z" fill="#1D1D1B"/>
<path d="M76.5905 101.438C81.2792 109.224 86.5056 116.758 92.4043 123.687C95.799 127.672 100.034 124.612 103.731 122.661C107.781 120.525 111.747 118.204 115.596 115.732C117.427 114.555 119.242 113.344 121.024 112.1C122.805 110.855 125.107 109.695 126.032 107.711C126.956 105.726 126.217 103.843 125.225 102.043C124.049 99.9077 122.788 97.8224 121.478 95.7708C119.074 92.0038 116.47 88.3714 113.713 84.8735C112.419 83.2254 111.125 81.4429 109.63 79.9966C107.58 77.9954 105.378 78.5167 103.059 79.6939C93.4967 84.5203 84.2201 90.0026 75.1452 95.7203C71.7169 97.8729 74.8763 103.338 78.3214 101.169C83.0941 98.1587 87.9341 95.2494 92.8244 92.441C97.7148 89.6326 102.487 86.7401 107.563 84.5035L105.966 84.9408L106.622 84.8903L105.025 84.4531C105.865 84.8903 106.487 86.0002 107.092 86.7065C107.815 87.581 108.537 88.4555 109.243 89.3467C110.638 91.1293 111.983 92.9624 113.277 94.829C114.571 96.6957 115.697 98.4278 116.839 100.278C117.444 101.253 118.032 102.245 118.621 103.237C119.024 103.927 120.184 105.306 120.15 106.147L120.587 104.549C120.251 105.239 119.108 105.777 118.469 106.231C117.528 106.903 116.57 107.559 115.612 108.198C113.596 109.561 111.546 110.872 109.479 112.134C107.529 113.328 105.546 114.488 103.546 115.598C102.555 116.153 101.546 116.691 100.538 117.229C99.5298 117.767 98.0509 118.238 97.1602 118.961L96.488 119.297L97.4627 119.936C97.4627 119.936 96.4544 118.759 96.3703 118.658C95.6477 117.784 94.9251 116.893 94.2025 115.985C92.7908 114.185 91.4128 112.369 90.0683 110.502C87.2114 106.534 84.5394 102.447 82.0186 98.2597C79.9348 94.7786 74.473 97.9569 76.5737 101.438H76.5905Z" fill="#1D1D1B"/>
<path d="M121.055 74.0434C125.895 81.7287 131.289 89.1785 137.322 95.9725C138.7 97.5365 140.414 98.4446 142.532 97.8897C144.649 97.3347 146.733 95.838 148.615 94.7954C152.615 92.5756 156.531 90.1876 160.345 87.6314C162.16 86.4206 163.942 85.1593 165.706 83.8812C167.471 82.6032 169.723 81.3924 170.647 79.4248C171.571 77.4572 170.815 75.557 169.773 73.7744C168.563 71.6723 167.252 69.6038 165.908 67.5858C163.438 63.8693 160.766 60.2873 157.925 56.8399C156.598 55.2255 155.27 53.4765 153.741 52.0471C151.674 50.0963 149.472 50.5672 147.17 51.7948C137.709 56.8231 128.55 62.4903 119.609 68.393C116.231 70.6128 119.391 76.0782 122.786 73.8416C127.491 70.7305 132.264 67.7203 137.104 64.811C141.944 61.9017 146.649 58.9083 151.674 56.5708L150.077 57.008L150.733 56.9408L149.136 56.5035C150.75 57.3107 152.329 59.9173 153.455 61.3131C154.901 63.0621 156.279 64.8615 157.606 66.6945C158.934 68.5275 160.11 70.2428 161.287 72.059C161.908 73.0344 162.53 74.0098 163.135 74.9852C163.538 75.6411 164.782 77.0536 164.765 77.844L165.202 76.2465C164.816 77.0873 163.572 77.6927 162.833 78.214C161.791 78.9707 160.749 79.7275 159.707 80.4507C157.606 81.9137 155.489 83.3263 153.321 84.6885C149.086 87.3623 144.7 90.0866 140.129 92.1383L141.725 91.701C142.145 91.6506 142.683 92.6933 142.044 91.802C141.692 91.2975 141.204 90.8266 140.801 90.3557C140.061 89.4812 139.322 88.6068 138.599 87.7155C137.154 85.9497 135.742 84.1503 134.364 82.3173C131.592 78.6008 128.987 74.7834 126.516 70.8482C124.365 67.4176 118.903 70.5792 121.071 74.0266L121.055 74.0434Z" fill="#1D1D1B"/>
<path d="M110.788 82.4855C111.158 81.796 111.578 81.157 112.032 80.5179C111.78 80.8038 112.368 80.0302 112.032 80.5179C112.149 80.3666 112.284 80.2152 112.401 80.0639C112.653 79.7612 112.906 79.4753 113.174 79.2062C113.679 78.6681 114.233 78.1804 114.805 77.7095C115.09 77.4237 115.09 77.4741 114.805 77.7095C114.939 77.575 115.124 77.4741 115.275 77.3732C115.594 77.1546 115.914 76.9359 116.25 76.7341C116.872 76.3474 117.527 75.9942 118.199 75.6747C118.216 75.6747 118.905 75.3384 118.468 75.5402C118.031 75.742 118.653 75.4729 118.737 75.4393C119.107 75.3047 119.46 75.1702 119.829 75.0525C120.569 74.817 121.325 74.6321 122.098 74.4975C122.199 74.4807 122.485 74.4975 122.552 74.4134C122.132 74.4639 122.048 74.4807 122.3 74.4471C122.384 74.4471 122.451 74.4302 122.535 74.4134C122.955 74.363 123.392 74.3462 123.812 74.3294C125.459 74.2621 127.039 72.9335 126.972 71.1678C126.904 69.5197 125.577 67.939 123.812 68.0062C116.216 68.3089 109.007 72.6309 105.36 79.3239C104.57 80.7702 104.957 82.8218 106.486 83.6459C108.015 84.4699 109.948 84.0663 110.805 82.5191L110.788 82.4855Z" fill="#1D1D1B"/>
<path d="M75.7679 95.1485C69.9365 95.4176 63.8697 94.7113 58.2903 96.847C56.761 97.4356 55.5342 98.9996 56.0888 100.732C56.5762 102.228 58.3239 103.574 59.9708 102.935C61.2817 102.43 62.6093 102.127 63.9873 101.858C64.7268 101.707 63.6345 101.875 64.3235 101.808C64.7268 101.757 65.1133 101.724 65.5166 101.69C66.172 101.64 66.8107 101.606 67.4661 101.589C70.2389 101.488 73.0118 101.589 75.7847 101.472C77.4316 101.404 79.0113 100.076 78.9441 98.3101C78.8769 96.662 77.5492 95.0812 75.7847 95.1485H75.7679Z" fill="#1D1D1B"/>
<path d="M153.273 52.8375C153.323 52.1312 153.391 51.4248 153.475 50.7185C153.525 50.3317 153.525 50.315 153.475 50.6513C153.508 50.4495 153.542 50.2477 153.559 50.0459C153.609 49.7432 153.659 49.4404 153.71 49.1377C153.962 47.742 154.281 46.3462 154.651 44.984C155.021 43.6218 155.474 42.2597 155.979 40.948C156.079 40.6621 156.197 40.3762 156.315 40.1071C156.449 39.754 156.466 39.7372 156.348 40.0231C156.432 39.8381 156.516 39.6531 156.6 39.4681C156.886 38.8122 157.189 38.1732 157.508 37.551C158.247 36.0711 157.945 34.0699 156.382 33.2291C154.953 32.4723 152.853 32.7919 152.063 34.3558C149.156 40.1576 147.441 46.363 146.937 52.8375C146.803 54.4855 148.483 56.0663 150.097 55.999C151.912 55.9149 153.105 54.62 153.256 52.8375H153.273Z" fill="#1D1D1B"/>
<path d="M92.9411 103.355C93.6133 104.6 94.672 105.693 95.8988 106.382C97.1256 107.072 98.6213 107.509 100.033 107.358C101.058 107.24 101.831 107.038 102.772 106.601C103.411 106.315 103.982 105.861 104.486 105.39C105.73 104.23 106.318 102.649 106.453 101.001C106.469 100.732 106.453 100.463 106.436 100.194C106.385 99.7059 106.335 99.1846 106.167 98.7137C105.831 97.7383 105.377 96.9143 104.654 96.1744C104.1 95.6026 103.209 95.2495 102.419 95.2495C101.629 95.2495 100.722 95.5858 100.184 96.1744C99.0078 97.4524 98.9742 99.3528 100.184 100.631C100.251 100.698 100.319 100.782 100.386 100.866L99.8985 100.227C100.067 100.446 100.201 100.664 100.302 100.917L99.9825 100.16C100.1 100.446 100.184 100.732 100.218 101.034L100.1 100.194C100.151 100.53 100.134 100.866 100.1 101.203L100.218 100.362C100.167 100.631 100.1 100.883 99.9993 101.152L100.319 100.395C100.201 100.681 100.05 100.95 99.8481 101.186L100.335 100.547C100.167 100.765 99.9657 100.95 99.7472 101.135L100.386 100.648C100.117 100.866 99.8145 101.034 99.4952 101.186L100.251 100.866C99.8985 101.018 99.5287 101.118 99.1422 101.169L99.9825 101.051C99.6296 101.085 99.2935 101.085 98.9406 101.051L99.7808 101.169C99.4279 101.118 99.0918 101.018 98.7557 100.883L99.5119 101.203C99.159 101.051 98.823 100.849 98.5037 100.614L99.1422 101.102C98.8397 100.849 98.554 100.58 98.302 100.278L98.7893 100.917C98.6213 100.681 98.4532 100.446 98.3188 100.194C97.9491 99.5041 97.176 98.9491 96.4366 98.7473C95.6972 98.5455 94.672 98.6296 94.0166 99.0668C92.5377 100.025 92.0504 101.825 92.8907 103.389L92.9411 103.355Z" fill="#1D1D1B"/>
<path d="M139.575 74.5984C139.978 75.7419 140.65 76.7005 141.726 77.2891C142.65 77.7936 143.524 77.9618 144.549 78.0795C145.843 78.2308 147.305 78.2476 148.532 77.8272C150.515 77.1545 152.044 75.6242 152.548 73.5557C152.968 71.79 152.683 69.9906 152.011 68.3089C151.691 67.5185 151.321 66.8626 150.565 66.4254C149.893 66.0218 148.901 65.8704 148.145 66.1059C147.389 66.3413 146.65 66.829 146.263 67.5521C145.877 68.2753 145.641 69.217 145.944 69.9738C146.213 70.6464 146.448 71.3359 146.532 72.0422L146.414 71.2014C146.465 71.5882 146.465 71.9749 146.414 72.3786L146.532 71.5377C146.482 71.8236 146.414 72.0927 146.313 72.3786L146.633 71.6218C146.532 71.8573 146.414 72.059 146.263 72.2777L146.75 71.6386C146.616 71.8068 146.465 71.9582 146.313 72.0927L146.952 71.605C146.75 71.7563 146.549 71.8741 146.313 71.975L147.07 71.6554C146.767 71.7732 146.465 71.8572 146.145 71.8909L146.986 71.7732C146.196 71.8741 145.356 71.8404 144.566 71.7395L145.406 71.8572C145.07 71.8068 144.734 71.7395 144.414 71.605L145.171 71.9245C145.003 71.8573 144.851 71.7732 144.717 71.6723L145.356 72.1599C145.238 72.0758 145.154 71.975 145.053 71.8741L145.54 72.5131C145.473 72.4122 145.423 72.3281 145.372 72.2104L145.692 72.9672L145.658 72.8831C145.389 72.0927 144.935 71.42 144.213 70.9996C143.541 70.596 142.549 70.4446 141.793 70.68C141.037 70.9155 140.297 71.4032 139.911 72.1263C139.524 72.8494 139.306 73.7575 139.591 74.5479L139.575 74.5984Z" fill="#1D1D1B"/>
<path d="M119.93 128.799C127.778 129.842 135.324 126.529 141.323 121.685C144.18 119.382 146.936 116.64 148.903 113.496C150.986 110.132 151.759 106.248 152.415 102.397C152.701 100.715 151.978 98.9996 150.213 98.5119C148.701 98.0915 146.617 99.0332 146.331 100.715C145.794 103.91 145.273 107.273 143.575 110.099C141.996 112.739 139.592 114.959 137.24 116.909C132.366 120.946 126.283 123.333 119.913 122.476C118.216 122.257 116.754 124.09 116.754 125.637C116.754 127.521 118.216 128.564 119.913 128.799H119.93Z" fill="#1D1D1B"/>
<path d="M129.141 130.094L134.132 135.374C135.964 137.325 137.998 139.982 140.972 138.452C142.905 137.46 144.686 136.03 146.417 134.735C148.316 133.306 150.165 131.809 151.98 130.262C153.795 128.715 155.391 127.252 157.055 125.688C158.719 124.124 161.491 122.341 161.592 119.903C161.71 116.943 158.937 115.699 156.752 114.437C154.568 113.176 152.433 111.949 150.265 110.704C146.753 108.669 143.56 114.118 147.089 116.153C148.703 117.094 150.333 118.019 151.946 118.961C152.719 119.398 153.492 119.852 154.265 120.29C154.887 120.66 155.71 120.979 156.114 121.467L155.307 120.071V119.886C155.441 119.348 155.593 118.827 155.727 118.288C155.912 117.969 155.206 118.776 155.105 118.86C154.685 119.247 154.282 119.634 153.862 120.037C153.156 120.71 152.433 121.366 151.711 122.039C150.215 123.418 148.703 124.78 147.156 126.091C145.762 127.285 144.333 128.463 142.854 129.556C142.081 130.144 141.291 130.699 140.485 131.254C140.014 131.574 139.544 131.893 139.073 132.196C138.871 132.33 138.67 132.465 138.451 132.583C137.947 132.885 137.897 132.919 138.3 132.717H139.981L139.628 132.6L141.023 133.407C138.384 131.002 136.048 128.194 133.611 125.604C130.822 122.644 126.368 127.117 129.158 130.06L129.141 130.094Z" fill="#1D1D1B"/>
<path d="M137.693 123.586L146.365 129.522C147.02 129.959 148.062 130.043 148.785 129.842C149.507 129.64 150.314 129.068 150.667 128.395C151.053 127.655 151.255 126.781 150.986 125.974C150.717 125.166 150.247 124.578 149.541 124.09C146.65 122.106 143.76 120.138 140.869 118.154C140.214 117.717 139.172 117.633 138.449 117.834C137.727 118.036 136.92 118.608 136.567 119.281C136.181 120.021 135.979 120.895 136.248 121.702C136.517 122.509 136.987 123.098 137.693 123.586Z" fill="#1D1D1B"/>
</svg>
