<svg width="235" height="198" viewBox="0 0 235 198" fill="none" xmlns="http://www.w3.org/2000/svg">
<path d="M41.1699 39.5328C39.2709 69.4162 19.659 93.8678 1.55968 116.133C0.484134 117.462 0.28247 119.295 1.55968 120.59C2.65202 121.716 4.93759 121.901 6.01313 120.59C25.2721 96.8948 45.4552 71.2829 47.4719 39.5328C47.724 35.4799 41.422 35.4968 41.1699 39.5328Z" fill="#1D1D1B"/>
<path d="M189.443 55.2061C187.679 49.5556 184.889 44.0902 180.52 40.0037C176.15 35.9172 170.537 33.462 164.622 32.6211C162.941 32.3857 161.244 33.0415 160.74 34.8241C160.336 36.304 161.244 38.4565 162.941 38.7088C164.353 38.9106 165.764 39.1965 167.142 39.5833C167.781 39.7683 168.403 39.9532 169.008 40.1887C169.293 40.2896 169.562 40.3905 169.831 40.5082C170.167 40.6427 170.201 40.6595 169.882 40.525C170.067 40.6091 170.235 40.6764 170.403 40.7604C171.512 41.2818 172.587 41.8872 173.613 42.5598C173.848 42.7112 174.066 42.8793 174.302 43.0307C174.453 43.1316 174.974 43.552 174.554 43.2157C175.058 43.6193 175.545 44.0397 176.033 44.4769C176.923 45.301 177.73 46.2091 178.486 47.134C178.94 47.689 178.301 46.8481 178.688 47.3863C178.906 47.7058 179.125 48.0085 179.343 48.328C179.662 48.8157 179.965 49.3034 180.267 49.7911C180.923 50.901 181.494 52.0613 182.032 53.2385C182.183 53.5748 182.2 53.6085 182.082 53.3226C182.166 53.5076 182.234 53.7094 182.318 53.8944C182.435 54.1802 182.536 54.4829 182.654 54.7688C182.906 55.4583 183.141 56.1646 183.36 56.8877C183.864 58.519 185.561 59.5448 187.242 59.0907C188.922 58.6367 189.947 56.8373 189.443 55.2061Z" fill="#1D1D1B"/>
<path d="M57.2516 106.211C57.7053 110.399 58.6128 114.552 60.7975 118.219C62.7973 121.565 65.7214 124.239 69.1161 126.106C70.5614 126.896 72.6116 126.509 73.4351 124.979C74.2586 123.449 73.8384 121.515 72.3091 120.657C71.5865 120.253 70.8639 119.816 70.1917 119.345C70.0236 119.228 69.7883 119.093 69.6539 118.958C69.8892 119.211 70.0236 119.261 69.6875 118.975C69.385 118.723 69.0825 118.471 68.7968 118.202C68.2254 117.664 67.7213 117.092 67.2171 116.486C66.8474 116.049 67.4524 116.873 67.2508 116.537C67.1331 116.352 66.9987 116.201 66.881 116.016C66.6626 115.696 66.4441 115.36 66.2424 115.023C65.8727 114.418 65.2845 113.594 65.1501 112.888C65.2173 113.224 65.3181 113.325 65.1669 112.921C65.0996 112.736 65.0324 112.568 64.9652 112.383C64.8139 111.946 64.6627 111.509 64.5282 111.055C64.293 110.247 64.0913 109.407 63.9233 108.583C63.8392 108.128 63.7552 107.658 63.688 107.204C63.688 107.103 63.5704 106.228 63.6544 107.002C63.6208 106.733 63.5872 106.464 63.5704 106.195C63.4023 104.563 62.2427 102.966 60.411 103.033C58.8481 103.1 57.0667 104.429 57.2516 106.195V106.211Z" fill="#1D1D1B"/>
<path d="M8.17925 97.0294C7.91037 94.8432 6.76762 92.4216 6.88526 90.2354C7.0029 88.0492 9.12036 86.0817 10.1791 84.3327C11.3891 82.3315 12.4478 80.2631 13.3889 78.1273C13.8931 76.9838 14.3636 75.8234 14.8006 74.6462C15.019 74.0745 15.2207 73.4859 15.4056 72.9141L15.6241 72.2078C16.0946 71.0474 15.7921 71.1988 14.683 72.6619H13.0024C14.7166 72.9309 16.4139 73.385 18.0944 73.755C20.2455 74.2258 21.8756 72.8132 22.0773 70.7111C22.3462 67.9868 21.0018 65.7333 20.7161 63.1099C20.4472 60.7724 21.3883 58.4349 22.3966 56.3832C23.5394 54.012 24.8502 51.725 25.8585 49.2865C26.9509 46.6295 27.6735 43.8547 28.4129 41.0799C29.9086 35.564 31.8412 30.1827 34.1099 24.9358C35.2527 22.2956 36.4459 19.689 37.6727 17.0824C38.2945 15.7875 38.9162 14.4926 39.538 13.1977C39.8741 12.4914 40.2271 11.7851 40.5632 11.0788C41.0001 10.1707 42.0252 9.46439 40.3447 10.1539H38.6642C39.5717 10.3389 40.7648 11.5497 41.521 12.0878C42.4958 12.7941 43.4705 13.5004 44.3948 14.274C46.3274 15.8716 48.1424 17.6373 49.5876 19.689C52.4782 23.7755 54.4948 28.5514 56.209 33.2265C59.7381 42.8793 61.6203 53.373 58.2928 63.3622C57.0156 67.23 63.0991 68.8781 64.3763 65.0439C67.4181 55.8955 66.6451 46.0577 64.0402 36.9094C61.5867 28.2992 57.9399 18.7809 51.5707 12.2896C49.9237 10.6079 48.0752 9.14487 46.193 7.73225C44.5461 6.50463 42.5966 4.65478 40.5799 4.13346C38.0928 3.49443 36.4795 5.19292 35.4712 7.21094C34.2948 9.54847 33.1856 11.9196 32.0765 14.274C27.8415 23.271 24.3124 32.352 21.6739 41.9376C21.0017 44.4097 20.2119 46.7808 19.0691 49.0679C17.9264 51.355 16.7164 53.5075 15.7753 55.8451C14.8342 58.1826 14.2124 60.7219 14.4477 63.2445C14.6829 65.767 16.0441 68.155 15.7921 70.6775L19.775 67.6336C16.75 66.9778 12.3638 65.0775 10.2799 68.4745C9.42285 69.8703 9.154 71.7538 8.58262 73.2841C7.94401 74.9826 7.18774 76.6306 6.34748 78.245C4.80139 81.2048 2.41503 83.8955 1.20505 86.9898C-0.189797 90.5549 1.42354 93.4811 1.86048 96.9958C2.06214 98.6774 3.1545 100.157 5.01989 100.157C6.56598 100.157 8.38092 98.7111 8.17925 96.9958V97.0294Z" fill="#1D1D1B"/>
<path d="M75.0303 25.4571C82.5087 20.1262 90.6929 15.8043 99.3141 12.6259C107.935 9.44757 118.203 6.58869 127.866 6.45415C135.009 6.35325 146.067 8.57308 148.167 16.8133C150.083 24.3304 144.386 32.537 139.311 37.4643C133.194 43.3838 125.598 47.3021 117.834 50.5646C113.128 52.549 97.4823 59.5952 96.1883 50.6319C95.7178 47.4367 97.3983 45.7382 100.675 45.3514C103.532 45.0151 105.465 46.4781 106.171 49.1015C108.137 56.3327 99.4149 63.3622 94.2053 67.2973C77.3999 80.0108 57.9897 89.0918 37.7393 94.7423L40.7979 100.006C47.1335 94.49 52.5784 87.9988 56.7966 80.7171C58.83 77.2024 53.3851 74.024 51.3516 77.5387C47.3855 84.3831 42.3103 90.3699 36.3444 95.5495C33.9077 97.6684 36.5125 101.637 39.403 100.813C60.8298 94.8264 81.5172 85.1063 99.0956 71.4006C106.171 65.8847 114.909 57.3081 112.221 47.403C111.011 42.9298 108.238 40.4577 103.818 39.3478C99.3981 38.2379 93.8859 40.0373 91.2811 43.8042C89.046 47.0331 89.4493 51.994 91.1131 55.3742C93.533 60.3015 99.3476 61.5796 104.305 61.0246C110.137 60.3688 115.565 58.2835 120.926 56.0132C125.665 53.9952 130.303 51.8427 134.639 49.0511C142.638 43.8883 149.848 36.9262 153.158 27.8115C154.923 22.9683 155.511 17.4187 153.31 12.6091C151.327 8.28719 147.31 5.02474 143.042 3.07399C131.227 -2.34102 117.178 0.585118 105.213 4.03256C93.3146 7.48 81.9373 12.7941 71.8373 19.9917C68.5603 22.3292 71.7029 27.7947 75.0136 25.4403L75.0303 25.4571Z" fill="#1D1D1B"/>
<path d="M81.8702 102.428C85.2145 103.403 88.6092 104.58 92.1383 104.597C95.2809 104.597 98.5411 103.672 101.18 101.94C106.944 98.1561 109.599 91.3958 108.406 84.6691C108.103 82.9874 106.07 82.0456 104.524 82.4661C102.759 82.9538 102.02 84.6691 102.322 86.3507C102.625 88.0324 102.322 90.5381 101.566 92.203C100.591 94.3219 99.2469 95.785 97.3815 96.8612C95.5161 97.9375 93.718 98.3747 91.5333 98.2738C88.8612 98.1393 86.1219 97.1135 83.5339 96.3567C81.9038 95.8859 80.1056 96.9285 79.6519 98.5597C79.1981 100.191 80.2065 101.957 81.8534 102.444L81.8702 102.428Z" fill="#1D1D1B"/>
<path d="M125.396 71.1315C125.16 75.2517 129.127 78.0601 132.756 78.8168C136.672 79.6408 140.621 78.8168 144.184 77.1015C147.747 75.3862 150.368 72.8805 151.78 69.2817C153.293 65.4811 153.982 61.1928 153.41 57.14C153.175 55.4583 151.024 54.5334 149.528 54.937C147.713 55.4415 147.091 57.1231 147.327 58.8216C147.68 61.361 146.839 64.3039 146.016 66.7424C145.31 68.8613 144.05 70.0048 141.966 71.1652C139.882 72.3255 137.647 72.9478 135.361 72.8469C134.571 72.8132 133.143 72.4937 132.555 72.1069C132.017 71.7538 132.101 71.9051 131.681 71.4006C132.051 71.8547 131.244 71.0138 131.715 71.4847L131.63 71.1988C131.681 71.5351 131.698 71.5183 131.698 71.1315C131.799 69.433 130.185 67.97 128.538 67.97C126.757 67.97 125.48 69.4162 125.379 71.1315H125.396Z" fill="#1D1D1B"/>
<path d="M57.7225 134.8C79.6702 122.54 103.702 114.418 128.557 110.769C130.238 110.516 131.179 108.381 130.759 106.884C130.254 105.085 128.574 104.429 126.876 104.681C101.5 108.414 76.9142 116.84 54.5295 129.351C50.9835 131.336 54.1597 136.784 57.7056 134.8H57.7225Z" fill="#1D1D1B"/>
<path d="M131.782 110.315C149.999 90.3195 167.795 67.5159 193.524 56.8877C195.087 56.2487 196.23 54.7856 195.726 53.003C195.306 51.5232 193.44 50.1442 191.844 50.8C164.888 61.9327 146.453 84.854 127.328 105.841C124.606 108.835 129.042 113.308 131.782 110.298V110.315Z" fill="#1D1D1B"/>
<path d="M127.498 109.995C135.027 119.564 140.539 130.528 146.388 141.157C152.236 151.785 159.277 162.716 166.974 172.688C168.016 174.05 170.318 173.764 171.428 172.688C172.772 171.376 172.469 169.577 171.428 168.232C163.748 158.293 157.126 147.665 151.093 136.65C145.06 125.635 139.514 115.158 131.935 105.522C130.876 104.177 128.591 104.429 127.482 105.522C126.154 106.834 126.44 108.65 127.482 109.978L127.498 109.995Z" fill="#1D1D1B"/>
<path d="M52.7324 137.474C65.5885 155.569 77.806 174.118 89.368 193.07C91.4855 196.534 96.9305 193.356 94.813 189.892C83.2509 170.939 71.0334 152.39 58.1773 134.295C55.8414 131.016 50.3797 134.161 52.7324 137.474Z" fill="#1D1D1B"/>
<path d="M96.1389 197.056C119.633 186.898 144.488 179.987 169.814 176.371C171.494 176.136 172.435 173.983 172.015 172.486C171.511 170.67 169.83 170.048 168.133 170.283C142.219 173.983 116.978 181.214 92.9627 191.607C91.383 192.28 91.0637 194.567 91.8367 195.929C92.761 197.56 94.5928 197.728 96.1557 197.056H96.1389Z" fill="#1D1D1B"/>
<path d="M190.72 56.7195C197.711 66.961 203.072 78.1778 208.584 89.2432C214.499 101.15 220.415 113.056 226.33 124.979C228.128 128.611 233.573 125.416 231.775 121.801C225.86 109.894 219.944 97.988 214.029 86.0648C208.517 74.9826 203.156 63.7826 196.165 53.5412C193.896 50.2114 188.434 53.3562 190.72 56.7195Z" fill="#1D1D1B"/>
<path d="M173.544 174.403C190.887 155.804 210.953 139.929 233.052 127.35C236.581 125.349 233.405 119.9 229.876 121.901C207.34 134.733 186.787 150.978 169.091 169.947C166.318 172.907 170.771 177.38 173.544 174.403Z" fill="#1D1D1B"/>
<path d="M77.032 137.945C77.5194 139.559 78.4437 140.77 79.4016 142.098C80.2755 143.309 81.0149 144.621 81.6871 145.949C83.0316 148.64 84.1239 151.449 85.7036 154.005C86.5607 155.417 88.5605 156.073 90.0226 155.131C91.4846 154.19 92.0729 152.323 91.1486 150.809C89.6193 148.321 88.5437 145.596 87.2497 142.99C86.6279 141.728 85.9557 140.484 85.149 139.324C84.7457 138.735 84.292 138.163 83.8718 137.575C83.6702 137.306 83.4853 137.02 83.334 136.734C83.3004 136.667 83.0148 136.196 83.2164 136.566C83.4181 136.936 83.1324 136.313 83.1156 136.246C82.6282 134.665 80.8973 133.505 79.2335 134.043C77.5698 134.581 76.5111 136.229 77.032 137.928V137.945Z" fill="#1D1D1B"/>
<path d="M80.4254 140.333C83.3159 137.575 87.4668 134.682 91.5337 136.179C91.7522 136.263 92.1051 136.414 92.4244 136.65C92.8445 136.952 92.2395 136.448 92.5925 136.818C92.7437 136.969 92.7605 136.986 92.6429 136.835L92.8109 137.121C92.7269 137.053 92.7605 136.868 92.7437 136.784C92.7437 136.969 92.6429 137.137 92.7101 137.02C92.6765 137.087 92.3236 137.457 92.1051 137.659C90.4414 139.29 88.3911 140.518 86.2905 141.51L89.4667 146.958C91.4497 145.815 93.7184 144.755 96.0207 144.47C96.5249 144.402 97.0963 144.385 97.6004 144.47C98.1886 144.57 98.3567 144.671 98.6592 144.84C98.9617 145.008 99.0457 145.125 99.2978 145.378C99.0961 145.176 99.5667 145.798 99.3986 145.546C99.2305 145.294 99.6676 146.101 99.4659 145.647C99.4827 145.697 99.4658 146.218 99.5163 145.865C99.4994 146.084 99.4154 146.336 99.3314 146.538C99.4491 146.269 99.1297 146.841 99.0961 146.908C99.0289 147.026 98.8105 147.312 98.8105 147.328C98.2223 148.052 97.466 148.606 96.6425 149.128C94.4914 150.507 92.2059 151.482 89.7524 152.121C85.8199 153.13 87.4836 159.218 91.4329 158.209C97.2811 156.695 107.667 151.886 105.549 144.133C104.541 140.467 100.978 138.331 97.3484 138.163C93.5168 137.978 89.5339 139.677 86.2905 141.543C84.8116 142.384 84.3074 144.402 85.1645 145.865C86.0888 147.446 87.9374 147.732 89.4835 146.992C92.5588 145.546 96.0712 143.41 97.9702 140.501C100.205 137.07 98.6424 133.051 95.3149 131.05C88.66 127.081 80.9127 131.201 75.972 135.893C73.031 138.701 77.4845 143.158 80.4254 140.349V140.333Z" fill="#1D1D1B"/>
<path d="M105.954 125.097C103.819 127.148 103.382 130.142 103.92 132.933C104.357 135.203 105.298 137.659 106.407 139.677C109.012 144.453 115.449 146.471 120.591 145.193C125.246 144.032 128.305 139.626 128.759 135.002C129.212 130.377 126.456 125.988 122.692 123.465C118.003 120.337 110.071 120.119 107.298 125.937C106.592 127.417 106.844 129.402 108.424 130.259C109.819 130.999 111.987 130.713 112.743 129.133C112.827 128.964 113.382 128.157 112.978 128.611C113.096 128.477 113.869 127.871 113.365 128.191C113.499 128.107 114.424 127.636 113.835 127.871C114.003 127.804 114.188 127.754 114.356 127.703C114.39 127.703 115.331 127.535 114.844 127.585C115.281 127.552 115.734 127.552 116.188 127.585C116.037 127.585 115.701 127.485 116.356 127.619C116.575 127.67 116.793 127.72 117.012 127.77C117.381 127.871 117.734 127.989 118.104 128.124C117.566 127.855 117.986 128.09 118.104 128.124C118.306 128.225 118.507 128.325 118.709 128.426C119.028 128.594 119.331 128.796 119.633 128.998C119.701 129.049 120.154 129.402 119.852 129.149C119.549 128.897 119.986 129.267 120.053 129.334C120.356 129.603 120.642 129.889 120.927 130.192C121.045 130.327 121.163 130.461 121.28 130.596C120.994 130.259 121.196 130.495 121.347 130.713C121.549 131.016 121.734 131.319 121.902 131.638C121.986 131.79 122.053 131.958 122.137 132.109C122.02 131.655 122.339 132.53 122.137 132.109C122.221 132.462 122.356 132.782 122.44 133.135C122.457 133.236 122.591 133.791 122.507 133.37C122.423 132.95 122.524 133.623 122.524 133.724C122.524 134.077 122.524 134.413 122.507 134.749C122.473 135.338 122.507 134.8 122.507 134.682C122.473 134.85 122.44 135.018 122.406 135.187C122.322 135.523 122.221 135.843 122.12 136.179C121.936 136.734 122.087 136.246 122.137 136.145C122.02 136.381 121.919 136.616 121.784 136.835C121.616 137.137 121.431 137.423 121.23 137.692C121.616 137.154 121.028 137.877 120.894 138.012C120.776 138.13 120.642 138.247 120.524 138.365C120.389 138.483 120.07 138.634 120.558 138.348C120.238 138.533 119.902 138.735 119.583 138.937C119.196 139.172 120.07 138.802 119.633 138.92C119.448 138.97 119.28 139.038 119.112 139.088C118.894 139.139 118.675 139.206 118.457 139.24C117.919 139.324 118.843 139.24 118.306 139.24C117.247 139.273 116.659 139.223 115.97 139.071C115.533 138.97 115.113 138.87 114.676 138.735C114.575 138.701 113.499 138.281 113.936 138.5C113.751 138.415 113.55 138.315 113.382 138.214C113.432 138.231 112.609 137.676 112.928 137.928C113.18 138.146 112.76 137.76 112.709 137.692C112.541 137.524 112.39 137.356 112.239 137.171C112.575 137.625 112.289 137.222 112.239 137.121C112.104 136.868 111.953 136.633 111.819 136.381C111.735 136.212 111.651 136.044 111.567 135.876C111.533 135.809 111.231 135.103 111.382 135.473C111.533 135.843 111.298 135.254 111.281 135.187C111.197 134.968 111.113 134.733 111.029 134.514C110.844 133.993 110.642 133.471 110.474 132.95C110.323 132.462 110.172 131.958 110.071 131.453C109.953 130.915 110.071 131.823 110.037 131.268C110.021 131.033 110.037 130.781 110.037 130.545C110.037 129.957 110.037 130.411 110.021 130.545C110.088 130.276 110.138 130.007 110.239 129.755C110.172 129.923 109.97 130.192 110.273 129.755C110.659 129.217 109.937 130.058 110.474 129.553C111.668 128.41 111.718 126.24 110.474 125.097C109.231 123.953 107.281 123.869 106.021 125.097H105.954Z" fill="#1D1D1B"/>
<path d="M100.256 157.923C96.6424 161.959 95.8021 167.946 98.6758 172.654C101.55 177.363 107.7 179.718 113.128 178.709C118.136 177.767 121.565 173.125 122.909 168.484C123.716 165.692 123.716 162.682 122.338 160.076C121.161 157.856 118.926 156.09 116.708 155.014C111.347 152.407 104.356 152.895 100.407 157.788C99.3817 159.067 99.0624 161.017 100.407 162.245C101.55 163.304 103.751 163.624 104.86 162.245C105.112 161.942 105.364 161.639 105.65 161.354C105.616 161.387 106.339 160.748 106.003 161.017C105.734 161.236 106.221 160.866 106.289 160.832C106.625 160.614 106.978 160.429 107.331 160.244C107.784 160.008 106.927 160.378 107.398 160.21C107.683 160.109 107.969 160.008 108.255 159.924C108.44 159.874 108.641 159.823 108.843 159.79C108.927 159.773 109.549 159.672 109.162 159.722C108.776 159.773 109.398 159.722 109.482 159.706C109.751 159.706 110.019 159.689 110.272 159.706C110.49 159.706 110.708 159.722 110.91 159.739C110.994 159.739 111.515 159.84 111.028 159.739C111.498 159.823 111.969 159.941 112.439 160.076C113.817 160.496 115.229 161.421 116.288 162.447C116.338 162.497 116.674 162.901 116.372 162.514C116.49 162.665 116.607 162.85 116.708 163.018C116.809 163.187 116.91 163.372 116.994 163.557C116.826 163.136 116.994 163.658 116.994 163.708C117.044 163.91 117.094 164.128 117.128 164.33C117.061 163.826 117.128 164.364 117.128 164.448C117.128 164.667 117.128 164.885 117.128 165.087C117.128 165.171 116.994 166.062 117.095 165.541C116.943 166.399 116.674 167.206 116.389 168.03C116.103 168.854 116.557 167.71 116.305 168.198C116.221 168.366 116.137 168.551 116.053 168.719C115.851 169.106 115.632 169.476 115.397 169.846C115.263 170.048 115.128 170.25 114.994 170.435C114.708 170.838 115.28 170.098 114.96 170.468C114.708 170.754 114.456 171.04 114.187 171.292C114.053 171.427 113.918 171.545 113.767 171.662C113.38 171.999 114.372 171.326 113.633 171.763C113.481 171.864 113.33 171.965 113.162 172.066C113.095 172.1 112.439 172.453 112.792 172.284C113.145 172.116 112.607 172.352 112.523 172.385C112.339 172.453 112.137 172.503 111.952 172.554C111.381 172.688 111.566 172.671 110.86 172.671C109.717 172.671 109.33 172.604 108.221 172.335C107.784 172.217 107.347 172.1 106.927 171.931C107.28 172.066 106.305 171.629 106.205 171.561C106.087 171.494 105.196 170.872 105.667 171.242C105.297 170.939 104.961 170.586 104.625 170.25C104.558 170.182 104.238 169.796 104.575 170.216C104.406 169.997 104.238 169.745 104.087 169.51C103.986 169.342 103.885 169.173 103.801 169.005C103.768 168.938 103.449 168.248 103.6 168.602C103.751 168.955 103.533 168.383 103.499 168.299C103.415 168.03 103.331 167.744 103.28 167.475C103.264 167.391 103.163 166.802 103.213 167.172C103.264 167.542 103.196 166.752 103.196 166.668C103.196 166.466 103.196 166.264 103.196 166.045C103.196 165.911 103.314 165.121 103.213 165.659C103.314 165.154 103.449 164.667 103.6 164.162C103.633 164.078 103.835 163.624 103.633 164.061C103.768 163.775 103.902 163.506 104.07 163.237C104.171 163.052 104.289 162.884 104.407 162.716C104.121 163.136 104.625 162.464 104.692 162.396C105.785 161.169 105.986 159.134 104.692 157.94C103.499 156.83 101.415 156.628 100.239 157.94L100.256 157.923Z" fill="#1D1D1B"/>
<path d="M131.734 145.125C130.054 147.951 128.222 150.658 126.222 153.248C125.634 154.021 125.718 155.215 126.071 156.056C126.474 156.998 127.163 157.536 128.121 157.889C133.331 159.823 138.523 161.74 143.733 163.674C145.279 164.246 147.245 163.035 147.615 161.471C148.018 159.689 147.077 158.209 145.414 157.587C140.204 155.653 135.011 153.736 129.802 151.802L131.684 156.426C133.684 153.836 135.532 151.129 137.196 148.304C138.036 146.891 137.566 144.789 136.07 143.982C134.574 143.175 132.658 143.595 131.751 145.109L131.734 145.125Z" fill="#1D1D1B"/>
<path d="M120.27 150.322C123.648 156.477 126.942 162.682 130.169 168.904C130.925 170.367 133.093 170.922 134.488 170.031C135.983 169.072 136.437 167.29 135.614 165.709C132.387 159.47 129.093 153.282 125.715 147.127C124.926 145.68 122.808 145.092 121.396 146C119.985 146.908 119.413 148.758 120.27 150.322Z" fill="#1D1D1B"/>
</svg>
