<svg width="82" height="87" viewBox="0 0 82 87" fill="none" xmlns="http://www.w3.org/2000/svg">
<mask id="mask0_491_8668" style="mask-type:luminance" maskUnits="userSpaceOnUse" x="0" y="1" width="82" height="85">
<path d="M81.5 1H0.5V86H81.5V1Z" fill="white"/>
</mask>
<g mask="url(#mask0_491_8668)">
<path fill-rule="evenodd" clip-rule="evenodd" d="M47.2419 28.9028C50.1348 30.6411 53.8892 29.705 55.6274 26.8121C57.3657 23.9191 56.4296 20.1648 53.5367 18.4265C50.6437 16.6882 46.8894 17.6243 45.1511 20.5173C43.4129 23.4102 44.3489 27.1645 47.2419 28.9028Z" stroke="black" stroke-linecap="round" stroke-linejoin="round"/>
<path fill-rule="evenodd" clip-rule="evenodd" d="M49.2424 53.0118C48.8292 53.26 48.293 53.1263 48.0447 52.7131C47.7964 52.2999 47.9301 51.7637 48.3433 51.5154C48.7565 51.2671 49.2928 51.4008 49.5411 51.814C49.7893 52.2273 49.6556 52.7635 49.2424 53.0118Z" stroke="black" stroke-linecap="round" stroke-linejoin="round"/>
<path fill-rule="evenodd" clip-rule="evenodd" d="M45.8923 31.148C50.0251 33.6312 55.3884 32.294 57.8717 28.1612C60.3549 24.0284 59.0177 18.6651 54.8849 16.1818C50.7521 13.6986 45.3888 15.0358 42.9055 19.1686C40.4223 23.3014 41.7595 28.6648 45.8923 31.148Z" stroke="black" stroke-linecap="round" stroke-linejoin="round"/>
<path d="M57.8715 28.1602C52.5274 41.4078 50.0101 48.3608 50.3195 49.0191C50.7838 50.0066 53.6264 50.365 51.2919 55.9574C48.9574 61.5498 38.7046 82.6246 38.0015 83.9996C37.2985 85.3747 36.7035 85.5982 36.2698 85.3376C35.8361 85.077 35.6788 84.7537 35.9793 83.1815C36.1796 82.1334 38.3272 74.8685 42.4219 61.3867C47.3143 47.289 49.9826 39.4724 50.4269 37.9369C51.0932 35.6336 50.7173 33.7021 48.2302 32.2077" stroke="black" stroke-linecap="round" stroke-linejoin="round"/>
<path d="M42.4219 61.3867C43.5295 61.472 43.9968 62.0865 43.8237 63.2303C43.6513 64.3689 41.5376 71.5613 37.4824 84.8075" stroke="black" stroke-linecap="round" stroke-linejoin="round"/>
<path fill-rule="evenodd" clip-rule="evenodd" d="M68.5329 41.6958C65.64 39.9575 64.7038 36.2032 66.4421 33.3102C68.1804 30.4173 71.9348 29.4812 74.8277 31.2195C77.7207 32.9577 78.6568 36.7121 76.9185 39.605C75.1802 42.498 71.4259 43.434 68.5329 41.6958Z" stroke="black" stroke-linecap="round" stroke-linejoin="round"/>
<path fill-rule="evenodd" clip-rule="evenodd" d="M67.1843 43.9409C63.0515 41.4577 61.7142 36.0944 64.1975 31.9616C66.6807 27.8288 72.044 26.4916 76.1768 28.9748C80.3096 31.458 81.6468 36.8214 79.1636 40.9542C76.6804 45.0869 71.317 46.4242 67.1843 43.9409Z" stroke="black" stroke-linecap="round" stroke-linejoin="round"/>
<path d="M64.1979 31.9609C58.9267 38.236 55.048 42.7169 52.5618 45.4038L50.5654 47.576" stroke="black" stroke-linecap="round" stroke-linejoin="round"/>
<path d="M47.058 47.8848C46.0297 47.8949 44.6587 48.4842 42.7428 50.8215C38.901 55.5082 25.1064 74.4549 24.2224 75.7212C23.3384 76.9875 23.4203 77.6178 23.854 77.8784C24.2877 78.139 24.6471 78.1261 25.8942 77.1227C26.7255 76.4537 32.1319 71.1469 42.1132 61.2021C42.3094 60.9906 42.504 60.781 42.6968 60.5732" stroke="black" stroke-linecap="round" stroke-linejoin="round"/>
<path d="M52.1201 50.4472C56.0574 46.2338 58.3707 43.7929 59.0598 43.1243C60.7806 41.4546 62.6626 40.8797 65.1496 42.3741" stroke="black" stroke-linecap="round" stroke-linejoin="round"/>
<path d="M53.8633 38.3477L55.8229 41.7418" stroke="black" stroke-linecap="round" stroke-linejoin="round"/>
<path d="M29.1663 68.6527L1.5 20.8887V80.4973H36.027L31.1929 72.1516" stroke="black" stroke-linecap="round" stroke-linejoin="round"/>
<path fill-rule="evenodd" clip-rule="evenodd" d="M9.16699 48.9922V73.2422H22.747L9.16699 48.9922Z" stroke="black" stroke-linecap="round" stroke-linejoin="round"/>
<path d="M1.5 28.4512H3.47664" stroke="black" stroke-linecap="round" stroke-linejoin="round"/>
<path d="M1.5 33.623H3.47664" stroke="black" stroke-linecap="round" stroke-linejoin="round"/>
<path d="M1.5 38.7969H3.47664" stroke="black" stroke-linecap="round" stroke-linejoin="round"/>
<path d="M1.5 43.9707H3.47664" stroke="black" stroke-linecap="round" stroke-linejoin="round"/>
<path d="M1.5 49.1445H3.47664" stroke="black" stroke-linecap="round" stroke-linejoin="round"/>
<path d="M1.5 54.3164H3.47664" stroke="black" stroke-linecap="round" stroke-linejoin="round"/>
<path d="M1.5 59.4902H3.47664" stroke="black" stroke-linecap="round" stroke-linejoin="round"/>
<path d="M1.5 64.6641H3.47664" stroke="black" stroke-linecap="round" stroke-linejoin="round"/>
<path d="M1.5 69.8379H3.47664" stroke="black" stroke-linecap="round" stroke-linejoin="round"/>
<path d="M1.5 75.0098H3.47664" stroke="black" stroke-linecap="round" stroke-linejoin="round"/>
<path fill-rule="evenodd" clip-rule="evenodd" d="M20.87 5.77903L25.8613 53.2688L29.299 60.6279L31.3393 52.6931L26.3479 5.20327C26.1049 2.89054 25.0703 1.83014 23.2443 2.02206C21.4183 2.21398 20.6269 3.4663 20.87 5.77903Z" stroke="black" stroke-linecap="round" stroke-linejoin="round"/>
<path d="M25.8613 53.2696L31.3192 52.502" stroke="black" stroke-linecap="round" stroke-linejoin="round"/>
</g>
</svg>
