<svg width="82" height="85" viewBox="0 0 82 85" fill="none" xmlns="http://www.w3.org/2000/svg">
<mask id="mask0_491_8669" style="mask-type:luminance" maskUnits="userSpaceOnUse" x="0" y="0" width="82" height="85">
<path d="M81.5 0H0.5V85H81.5V0Z" fill="white"/>
</mask>
<g mask="url(#mask0_491_8669)">
<path fill-rule="evenodd" clip-rule="evenodd" d="M47.2419 27.9028C50.1348 29.6411 53.8892 28.705 55.6274 25.8121C57.3657 22.9191 56.4296 19.1648 53.5367 17.4265C50.6437 15.6882 46.8894 16.6243 45.1511 19.5173C43.4129 22.4102 44.3489 26.1645 47.2419 27.9028Z" stroke="black" stroke-linecap="round" stroke-linejoin="round"/>
<path fill-rule="evenodd" clip-rule="evenodd" d="M49.2424 52.0118C48.8292 52.26 48.293 52.1263 48.0447 51.7131C47.7964 51.2999 47.9301 50.7637 48.3433 50.5154C48.7565 50.2671 49.2928 50.4008 49.5411 50.814C49.7893 51.2273 49.6556 51.7635 49.2424 52.0118Z" stroke="black" stroke-linecap="round" stroke-linejoin="round"/>
<path fill-rule="evenodd" clip-rule="evenodd" d="M45.8923 30.148C50.0251 32.6312 55.3884 31.294 57.8717 27.1612C60.3549 23.0284 59.0177 17.6651 54.8849 15.1818C50.7521 12.6986 45.3888 14.0358 42.9055 18.1686C40.4223 22.3014 41.7595 27.6648 45.8923 30.148Z" stroke="black" stroke-linecap="round" stroke-linejoin="round"/>
<path d="M57.8715 27.1602C52.5274 40.4078 50.0101 47.3608 50.3195 48.0191C50.7838 49.0066 53.6264 49.365 51.2919 54.9574C48.9574 60.5498 38.7046 81.6246 38.0015 82.9996C37.2985 84.3747 36.7035 84.5982 36.2698 84.3376C35.8361 84.077 35.6788 83.7537 35.9793 82.1815C36.1796 81.1334 38.3272 73.8685 42.4219 60.3867C47.3143 46.289 49.9826 38.4724 50.4269 36.9369C51.0932 34.6336 50.7173 32.7021 48.2302 31.2077" stroke="black" stroke-linecap="round" stroke-linejoin="round"/>
<path d="M42.4219 60.3867C43.5295 60.472 43.9968 61.0865 43.8237 62.2303C43.6513 63.3689 41.5376 70.5613 37.4824 83.8075" stroke="black" stroke-linecap="round" stroke-linejoin="round"/>
<path fill-rule="evenodd" clip-rule="evenodd" d="M68.5329 40.6958C65.64 38.9575 64.7038 35.2032 66.4421 32.3102C68.1804 29.4173 71.9348 28.4812 74.8277 30.2195C77.7207 31.9577 78.6568 35.7121 76.9185 38.605C75.1802 41.498 71.4259 42.434 68.5329 40.6958Z" stroke="black" stroke-linecap="round" stroke-linejoin="round"/>
<path fill-rule="evenodd" clip-rule="evenodd" d="M67.1843 42.9409C63.0515 40.4577 61.7142 35.0944 64.1975 30.9616C66.6807 26.8288 72.044 25.4916 76.1768 27.9748C80.3096 30.458 81.6468 35.8214 79.1636 39.9542C76.6804 44.0869 71.317 45.4242 67.1843 42.9409Z" stroke="black" stroke-linecap="round" stroke-linejoin="round"/>
<path d="M64.1979 30.9609C58.9267 37.236 55.048 41.7169 52.5618 44.4038L50.5654 46.576" stroke="black" stroke-linecap="round" stroke-linejoin="round"/>
<path d="M47.058 46.8848C46.0297 46.8949 44.6587 47.4842 42.7428 49.8215C38.901 54.5082 25.1064 73.4549 24.2224 74.7212C23.3384 75.9875 23.4203 76.6178 23.854 76.8784C24.2877 77.139 24.6471 77.1261 25.8942 76.1227C26.7255 75.4537 32.1319 70.1469 42.1132 60.2021C42.3094 59.9906 42.504 59.781 42.6968 59.5732" stroke="black" stroke-linecap="round" stroke-linejoin="round"/>
<path d="M52.1201 49.4472C56.0574 45.2338 58.3707 42.7929 59.0598 42.1243C60.7806 40.4546 62.6626 39.8797 65.1496 41.3741" stroke="black" stroke-linecap="round" stroke-linejoin="round"/>
<path d="M53.8633 37.3477L55.8229 40.7418" stroke="black" stroke-linecap="round" stroke-linejoin="round"/>
<path d="M29.1663 67.6527L1.5 19.8887V79.4973H36.027L31.1929 71.1516" stroke="black" stroke-linecap="round" stroke-linejoin="round"/>
<path fill-rule="evenodd" clip-rule="evenodd" d="M9.16699 47.9922V72.2422H22.747L9.16699 47.9922Z" stroke="black" stroke-linecap="round" stroke-linejoin="round"/>
<path d="M1.5 27.4512H3.47664" stroke="black" stroke-linecap="round" stroke-linejoin="round"/>
<path d="M1.5 32.623H3.47664" stroke="black" stroke-linecap="round" stroke-linejoin="round"/>
<path d="M1.5 37.7969H3.47664" stroke="black" stroke-linecap="round" stroke-linejoin="round"/>
<path d="M1.5 42.9707H3.47664" stroke="black" stroke-linecap="round" stroke-linejoin="round"/>
<path d="M1.5 48.1445H3.47664" stroke="black" stroke-linecap="round" stroke-linejoin="round"/>
<path d="M1.5 53.3164H3.47664" stroke="black" stroke-linecap="round" stroke-linejoin="round"/>
<path d="M1.5 58.4902H3.47664" stroke="black" stroke-linecap="round" stroke-linejoin="round"/>
<path d="M1.5 63.6641H3.47664" stroke="black" stroke-linecap="round" stroke-linejoin="round"/>
<path d="M1.5 68.8379H3.47664" stroke="black" stroke-linecap="round" stroke-linejoin="round"/>
<path d="M1.5 74.0098H3.47664" stroke="black" stroke-linecap="round" stroke-linejoin="round"/>
<path fill-rule="evenodd" clip-rule="evenodd" d="M20.87 4.77903L25.8613 52.2688L29.299 59.6279L31.3393 51.6931L26.3479 4.20327C26.1049 1.89054 25.0703 0.830139 23.2443 1.02206C21.4183 1.21398 20.6269 2.4663 20.87 4.77903Z" stroke="black" stroke-linecap="round" stroke-linejoin="round"/>
<path d="M25.8613 52.2696L31.3192 51.502" stroke="black" stroke-linecap="round" stroke-linejoin="round"/>
</g>
</svg>
