<svg width="142" height="135" viewBox="0 0 142 135" fill="none" xmlns="http://www.w3.org/2000/svg">
<path d="M9.70044 52.8067L16.0308 60.72L18.9082 64.3146C19.8215 65.4504 20.7223 66.6736 22.2986 66.8234C23.875 66.9732 24.9384 66.0121 26.1144 65.1634C27.5406 64.1274 28.9543 63.0914 30.3805 62.0555C33.0577 60.1084 35.7225 58.1488 38.3998 56.2017C49.259 48.276 60.1182 40.3378 70.9899 32.4121C77.1701 27.8938 83.3503 23.388 89.5431 18.8697C90.5439 18.1333 91.1069 16.8352 90.3813 15.662C88.6548 12.8786 86.8408 10.1452 84.9142 7.48665C83.9508 6.15114 82.95 4.85307 81.9491 3.555C81.1109 2.4816 80.2602 1.04623 79.0217 0.384718C77.5829 -0.37665 76.1067 0.0851623 74.8431 0.958863C73.4044 1.96986 71.9782 3.00582 70.5395 4.02929C67.6746 6.07625 64.8096 8.13569 61.9447 10.1826C50.3974 18.4454 38.8501 26.7081 27.3029 34.9708C20.8099 39.6139 14.3169 44.2569 7.83638 48.9C6.798 49.6364 6.3226 50.9345 6.99817 52.1078C7.58617 53.1313 9.18751 53.6804 10.2134 52.944C27.9159 40.2754 45.6184 27.6067 63.3209 14.9381C65.848 13.1283 68.3751 11.3185 70.9023 9.50864C72.0783 8.65991 73.2668 7.82365 74.4428 6.97491C75.6188 6.12618 76.8949 5.00285 78.2585 4.36629L77.07 4.69081C76.6947 4.4287 76.6822 4.47863 77.0325 4.81563C77.2702 5.11518 77.5204 5.41474 77.7581 5.71429C78.2335 6.3134 78.6964 6.91251 79.1593 7.51162C79.9725 8.58502 80.7731 9.6709 81.5613 10.7693C83.2377 13.1283 84.8391 15.5497 86.3529 18.0085L87.1911 14.8008C70.1516 27.2448 53.0997 39.6888 36.0603 52.1452C33.7208 53.8552 31.3813 55.5651 29.0418 57.2751C27.7908 58.1862 26.5397 59.1099 25.2761 60.021C24.4004 60.6576 23.0618 62.0929 22.0109 62.2677H23.2619C23.0743 62.2177 22.4488 61.2442 22.2611 61.007L21.1101 59.5717L18.4203 56.2142L13.0533 49.4992C12.2526 48.5006 10.5637 48.6879 9.73797 49.4992C8.74964 50.4602 8.9498 51.8207 9.73797 52.8067H9.70044Z" fill="#1D1D1B"/>
<path d="M32.4416 56.4031C31.6073 61.1595 30.7606 65.9159 29.9263 70.6723C29.5403 72.8704 29.3411 74.7084 30.2376 76.8072C31.0719 78.7818 32.205 80.6322 33.114 82.5695C36.7872 90.3685 39.2278 98.7015 41.3695 107.022C42.4777 111.331 43.4987 115.653 44.5447 119.975C45.0178 121.95 45.5035 123.924 46.014 125.899C46.5245 127.873 46.8483 130.183 47.8569 131.984C50.3472 136.442 55.1287 134.368 58.4782 132.307C62.1888 130.022 65.887 127.699 69.4108 125.141C75.3752 120.795 83.8798 114.709 83.17 106.352C82.8836 102.986 81.3272 99.6826 78.7248 97.4721C75.9231 95.1001 71.4405 93.5974 68.4147 96.4537C65.887 98.8381 65.5757 102.775 67.0575 105.78C68.7883 109.282 72.6981 111.865 76.222 113.281C80.3933 114.958 84.3654 113.852 88.0387 111.555C91.7119 109.258 95.1237 106.736 98.548 104.191C114.075 92.6536 128.221 79.3406 140.66 64.525C141.706 63.2831 141.469 61.8053 140.187 60.8739C129.565 53.0376 118.931 45.2013 108.31 37.3651C105.658 35.4029 102.993 33.4407 100.341 31.491C98.025 29.7772 95.709 28.0882 92.9945 27.0574C90.28 26.0267 87.0425 25.7907 84.0417 25.5672C81.0408 25.3436 77.7535 25.0704 74.6032 24.8345C71.4529 24.5985 71.6273 29.2556 74.6032 29.4915C77.7535 29.7399 80.8914 29.9883 84.0417 30.2242C86.781 30.4354 89.62 30.5844 92.1602 31.7269C94.7004 32.8694 97.1534 34.8937 99.4818 36.6075C101.972 38.4455 104.463 40.2835 106.953 42.1215C117.251 49.7093 127.548 57.3097 137.833 64.8975L137.36 61.2464C127.822 72.6096 117.275 83.1159 105.845 92.5915C100.229 97.2361 94.4015 101.632 88.3873 105.743C85.6728 107.593 82.4852 110.214 78.9862 109.332C76.2469 108.637 72.6732 106.426 71.3035 103.855C70.2327 101.843 70.9798 98.7636 73.744 99.8316C76.1597 100.751 77.766 103.11 78.3387 105.544C79.061 108.612 77.6664 111.394 75.6616 113.654C73.2584 116.336 70.407 118.683 67.5057 120.819C64.6045 122.955 61.4044 125.042 58.2541 127.004C56.7599 127.935 55.2408 129.09 53.622 129.786C53.1987 129.96 52.5387 130.295 52.1154 130.022C51.6422 129.711 51.5052 128.432 51.3683 127.923C49.4507 120.77 47.8693 113.53 46.0389 106.364C43.9719 98.242 41.5687 90.1946 38.1943 82.5074C37.3476 80.5825 36.4386 78.6824 35.4549 76.8196C35.0689 76.0869 34.5833 75.3666 34.3592 74.5718C34.0603 73.5038 34.3592 72.4109 34.5584 71.3553L36.9616 57.6822C37.4721 54.7514 32.977 53.4971 32.454 56.4403L32.4416 56.4031Z" fill="#1D1D1B"/>
<path d="M7.0916 48.3737C4.17322 51.2486 2.03632 54.9019 0.925132 58.8941C-0.124999 62.6353 -0.479113 67.1799 0.925132 70.8834C2.32938 74.5869 6.12694 77.5245 10.1199 75.9553C14.8333 74.0972 14.2594 67.795 13.6122 63.6521C12.9406 59.2958 11.3043 54.2365 13.9297 50.2317C15.5781 47.7083 11.6096 45.3481 9.97336 47.859C8.01963 50.8469 7.68993 54.588 8.08068 58.0781C8.50806 61.8946 9.88788 65.8366 9.39945 69.7033C9.26513 70.7955 8.98428 71.6492 7.94636 71.6617C6.82296 71.6617 5.99264 70.8959 5.47978 69.8916C4.17323 67.3305 4.4907 63.7777 5.12566 61.066C5.96821 57.4755 7.7632 54.2742 10.3519 51.7131C12.4888 49.6165 9.24072 46.2897 7.11603 48.3862L7.0916 48.3737Z" fill="#1D1D1B"/>
<path d="M15.5038 71.8248C15.5161 73.1463 15.195 74.3566 14.7503 75.7768C14.3055 77.1971 13.7991 78.5432 13.5397 79.9882C12.9961 83.0757 13.6632 86.4843 16.6773 88.0527C19.4321 89.4853 22.9404 88.8184 24.9292 86.3978C26.918 83.9772 27.1033 80.9268 26.2633 78.1357C25.3245 74.9988 23.1009 72.5782 21.3715 69.8859C20.7044 68.8362 19.3085 68.4039 18.1968 69.0585C17.1467 69.676 16.6897 71.1703 17.3691 72.2324C18.6168 74.196 20.1609 75.9744 21.2356 78.0369C21.5197 78.5803 21.495 78.5062 21.6803 79.0496C21.7668 79.3089 21.8409 79.5559 21.9027 79.8276C21.9274 79.9388 21.9521 80.0499 21.9768 80.1611C21.9768 80.1981 22.0633 80.6427 22.0262 80.4204C21.9892 80.1858 22.0262 80.5563 22.0262 80.5686C22.0262 80.6798 22.0386 80.7909 22.0509 80.9144C22.0509 81.1367 22.0509 81.3714 22.0509 81.5937C22.0509 81.6554 22.0015 82.1247 22.0509 81.8407C22.088 81.5937 22.0262 81.9518 22.0262 81.9765C21.9645 82.2235 21.9027 82.4705 21.8286 82.7175C21.7544 82.9645 21.8286 82.7175 21.8533 82.6681C21.8039 82.7669 21.7545 82.8657 21.705 82.9645C21.6433 83.0633 21.2727 83.5697 21.5074 83.3103C21.3592 83.4832 21.1986 83.6561 21.0133 83.8043C21.2356 83.6191 20.7044 83.9772 20.6056 84.0266C20.2721 84.2119 20.8774 83.9525 20.5191 84.0637C20.408 84.1007 20.2968 84.1254 20.1856 84.1625C19.8027 84.2736 20.2721 84.2119 19.8768 84.2119C19.7409 84.2119 19.2097 84.1501 19.5927 84.2242C19.4568 84.1995 18.765 83.9402 19.0985 84.1131C18.9009 84.0143 18.7032 83.9031 18.5303 83.7796C18.8144 83.9772 18.4191 83.6438 18.3326 83.5697C18.3203 83.5573 18.1103 83.2733 18.2338 83.4585C18.382 83.6685 18.135 83.2609 18.1103 83.2115C17.9868 82.9645 18.0856 83.1498 18.1103 83.2115C18.0609 83.0633 18.0115 82.9028 17.9744 82.7422C17.9744 82.7422 17.9126 82.347 17.9374 82.5693C17.9621 82.7916 17.9374 82.3841 17.9374 82.3841C17.9374 82.1371 17.9374 81.8901 17.9374 81.6307C17.9621 81.1738 17.9497 81.3714 17.9374 81.4949C17.9497 81.3714 17.9744 81.2479 17.9991 81.1244C18.0609 80.8156 18.1226 80.5192 18.1968 80.2228C18.9132 77.4317 20.1238 74.8012 20.0991 71.8619C20.0991 70.6516 19.0368 69.4907 17.7768 69.5401C16.5167 69.5895 15.442 70.5528 15.4544 71.8619L15.5038 71.8248Z" fill="#1D1D1B"/>
<path d="M48.0762 65.8988C49.5227 68.6205 51.7594 71.0281 54.697 72.1048C57.8882 73.2713 61.2135 72.1198 63.659 69.9365C68.2966 65.7642 69.743 58.5413 68.0878 52.6792C67.6852 51.2735 66.0896 50.2566 64.6432 50.7202C63.1967 51.1837 62.2722 52.6642 62.6897 54.1746C62.8538 54.7728 62.988 55.371 63.0924 55.9841C62.988 55.4009 63.1073 56.2383 63.1222 56.2832C63.152 56.5972 63.1669 56.8963 63.1669 57.2103C63.1669 57.7936 63.1371 58.3618 63.1073 58.9301C63.0625 59.603 63.1818 58.631 63.0774 59.2292C63.0178 59.5731 62.9582 59.9171 62.8687 60.276C62.7494 60.7844 62.6003 61.3078 62.4213 61.8013C62.3617 61.9658 62.302 62.1303 62.2424 62.2948C62.138 62.564 62.1082 62.6238 62.1827 62.4443C62.2573 62.2649 62.2275 62.3247 62.1082 62.5939C62.0336 62.7584 61.9591 62.9079 61.8696 63.0724C61.631 63.536 61.3626 63.9996 61.0644 64.4333C60.9749 64.5679 60.8705 64.7174 60.7661 64.852C60.96 64.6127 60.9451 64.6277 60.7512 64.8669C60.5872 65.0613 60.4232 65.2408 60.2591 65.4352C60.0951 65.6296 59.9012 65.7941 59.7223 65.9586C59.603 66.0633 59.4688 66.1829 59.3495 66.2876C59.5583 66.1231 59.5732 66.1082 59.4241 66.2128C59.1706 66.3474 58.932 66.5119 58.6934 66.6615C58.082 67.0204 59.1407 66.5568 58.4697 66.7661C58.2311 66.8409 58.0075 66.9007 57.7689 66.9605C57.4408 67.0204 57.4557 67.0204 57.7838 66.9605C57.6197 66.9605 57.4557 66.9605 57.3066 66.9605C56.74 67.0054 57.7092 67.0951 57.1127 66.9605C56.8891 66.9007 56.6654 66.8409 56.4417 66.7811C56.1435 66.6764 56.1435 66.6764 56.4417 66.796C56.3373 66.7512 56.233 66.6914 56.1286 66.6315C55.8751 66.497 55.6514 66.3474 55.4128 66.1979C54.7865 65.7941 55.7558 66.5418 55.204 66.0334C55.0251 65.8689 54.8313 65.7044 54.6672 65.5249C54.4286 65.2857 54.2199 65.0314 53.9962 64.7772C53.6085 64.3286 54.1751 65.0763 53.8322 64.5379C53.519 64.0445 53.2059 63.5659 52.9375 63.0425C52.2515 61.7415 50.3428 61.233 49.1051 62.0406C47.7929 62.893 47.3605 64.4931 48.1061 65.8838L48.0762 65.8988Z" fill="black"/>
<path d="M74.6171 50.7541C75.3505 53.0043 76.5207 55.0402 78.1123 56.8159C78.9705 57.7803 80.0315 58.6069 81.2954 58.9896C82.6373 59.3876 84.026 59.1886 85.2898 58.6682C89.4559 56.9384 91.3908 52.0399 91.6404 47.8915C91.7652 45.6719 91.4064 43.3757 90.673 41.2786C90.1737 39.8702 88.6446 38.7681 87.0686 39.2732C85.6331 39.7325 84.4941 41.2786 85.0246 42.8093C85.3522 43.7278 85.5551 44.6463 85.7423 45.58C85.7735 45.7943 85.7735 45.7178 85.7111 45.3504C85.7267 45.4882 85.7423 45.626 85.7579 45.779C85.7735 45.9933 85.7891 46.2077 85.8047 46.422C85.836 46.9118 85.8203 47.417 85.8047 47.9068C85.8047 48.1211 85.7735 48.3354 85.7579 48.5344C85.6955 49.2539 85.8828 47.9068 85.7579 48.611C85.6643 49.0855 85.5707 49.5601 85.4147 50.0346C85.3522 50.2336 85.2898 50.4326 85.2118 50.6316C85.165 50.7541 85.1182 50.8918 85.0558 51.0143L85.1806 50.7081C85.1494 51.0908 84.6969 51.6572 84.4785 51.9787C84.4629 52.0093 84.1196 52.4838 84.1196 52.4991C84.3692 52.193 84.3848 52.1624 84.182 52.4073C84.1196 52.4838 84.0416 52.5604 83.9635 52.6369C83.7919 52.8206 83.6047 53.0043 83.4174 53.1727C82.9337 53.6319 83.8699 52.9431 83.2926 53.2645C83.1678 53.3411 83.0429 53.4176 82.9025 53.4788L83.199 53.3717C83.0429 53.4788 82.0755 53.6013 82.9337 53.4788H82.7153C83.1366 53.5401 83.1834 53.5401 82.8557 53.4635C83.5267 53.7238 82.8245 53.4635 82.7465 53.3411C83.0429 53.5554 83.0585 53.5707 82.8089 53.3411C82.7309 53.2645 82.6373 53.188 82.5592 53.0961C82.372 52.8971 82.1848 52.6981 81.9975 52.4838C81.4826 51.9021 82.3096 52.9431 81.8727 52.3154C81.7323 52.1164 81.5918 51.9328 81.467 51.7338C81.1705 51.2745 80.8897 50.7847 80.6556 50.2948C80.6088 50.1877 80.3592 49.4988 80.562 50.1111C80.4684 49.805 80.3436 49.5141 80.2499 49.2233C79.7818 47.7997 78.1903 46.7281 76.6456 47.218C75.1788 47.6772 74.1022 49.2233 74.6015 50.7541H74.6171Z" fill="black"/>
<path d="M61.4961 83.9956C65.4756 86.4037 69.8278 88.3272 74.5376 88.7383C79.2474 89.1494 83.525 87.4902 86.9679 84.4948C92.8999 79.341 95.1058 70.4429 92.4826 63.1306C91.9758 61.7357 90.5748 60.796 89.0396 61.2071C87.6684 61.5742 86.5804 63.1894 87.0872 64.599C89.0546 70.0612 87.6386 76.3603 83.2865 80.3395C77.593 85.552 70.0811 82.7182 64.2982 79.2382C61.2279 77.3881 58.4109 82.1455 61.4812 83.9956H61.4961Z" fill="black"/>
</svg>
